<svg xmlns="http://www.w3.org/2000/svg" viewBox="0 0 24 24" fill="none" stroke="currentColor" stroke-width="1.5" stroke-linecap="round" stroke-linejoin="round">
  <path d="M8.5,10.8l-6.1-3.9c-.8-.4-1.1-.3-1.1.3v9.6c0,.6.4.7,1.1.3l6.1-3.9c-.1-.4-.2-.8-.2-1.2s0-.9.2-1.2Z"/>
  <path d="M21.5,6.8l-6.1,3.9c.1.4.2.8.2,1.2s0,.9-.2,1.2l6.1,3.9c.8.4,1.1.3,1.1-.3V7.2c0-.6-.4-.7-1.1-.3Z"/>
  <path d="M8.5,13.2c.5,1.4,1.9,2.4,3.5,2.4s2.9-1,3.5-2.4"/>
  <path d="M15.5,10.8c-.5-1.4-1.9-2.4-3.5-2.4s-2.9,1-3.5,2.4"/>
</svg>